<svg xmlns="http://www.w3.org/2000/svg" xmlns:xlink="http://www.w3.org/1999/xlink" width="4000" zoomAndPan="magnify" viewBox="0 0 3000 2999.999989" height="4000" preserveAspectRatio="xMidYMid meet" version="1.0"><defs><clipPath id="240125fc07"><path d="M 756.707031 1561 L 1776 1561 L 1776 2064.574219 L 756.707031 2064.574219 Z M 756.707031 1561 " clip-rule="nonzero"/></clipPath><clipPath id="c8b1f7b481"><path d="M 1689 411.40625 L 2282 411.40625 L 2282 1003 L 1689 1003 Z M 1689 411.40625 " clip-rule="nonzero"/></clipPath></defs><g clip-path="url(#240125fc07)"><path fill="#033567" d="M 756.707031 1561.59375 L 1775.867188 1561.59375 L 1775.867188 2065.046875 L 756.707031 2065.046875 Z M 756.707031 1561.59375 " fill-opacity="1" fill-rule="nonzero"/></g><path fill="#033567" d="M 1229.445312 1027.425781 L 2248.628906 1027.425781 L 2248.628906 1532.917969 L 1229.445312 1532.917969 Z M 1229.445312 1027.425781 " fill-opacity="1" fill-rule="nonzero"/><g clip-path="url(#c8b1f7b481)"><path fill="#033567" d="M 2281.386719 707.132812 C 2281.386719 870.480469 2148.976562 1002.863281 1985.65625 1002.863281 C 1822.3125 1002.863281 1689.929688 870.480469 1689.929688 707.132812 C 1689.929688 543.816406 1822.3125 411.433594 1985.65625 411.433594 C 2148.976562 411.433594 2281.386719 543.816406 2281.386719 707.132812 Z M 2281.386719 707.132812 " fill-opacity="1" fill-rule="nonzero"/></g><path fill="#033567" d="M 149.921875 2463.84375 L 149.921875 2528.679688 L 317.890625 2528.679688 L 317.890625 2607.59375 L 61.953125 2607.59375 L 61.953125 2241.097656 L 317.890625 2241.097656 L 317.890625 2320.015625 L 149.921875 2320.015625 L 149.921875 2384.847656 L 292.511719 2384.847656 L 292.511719 2463.84375 Z M 149.921875 2463.84375 " fill-opacity="1" fill-rule="nonzero"/><path fill="#033567" d="M 491 2243.339844 C 541.328125 2243.339844 584.558594 2261.195312 620.667969 2296.878906 C 656.355469 2332.625 674.207031 2375.875 674.207031 2426.628906 C 674.207031 2476.976562 656.355469 2520.207031 620.667969 2556.296875 C 584.558594 2592.003906 541.328125 2609.835938 491 2609.835938 L 351.734375 2609.835938 L 351.734375 2243.339844 Z M 560.863281 2496.492188 C 580.050781 2477.363281 589.644531 2454.074219 589.644531 2426.628906 C 589.644531 2399.550781 580.050781 2376.066406 560.863281 2356.144531 C 541.714844 2336.957031 518.234375 2327.363281 490.378906 2327.363281 L 439.703125 2327.363281 L 439.703125 2525.273438 L 491 2525.273438 C 518.425781 2525.273438 541.714844 2515.679688 560.863281 2496.492188 Z M 560.863281 2496.492188 " fill-opacity="1" fill-rule="nonzero"/><path fill="#033567" d="M 939.761719 2241.097656 L 1021.539062 2241.097656 L 1021.539062 2452.546875 C 1021.539062 2498.40625 1004.230469 2536.550781 969.625 2566.976562 C 938.40625 2594.054688 903.261719 2607.59375 864.171875 2607.59375 C 826.609375 2607.59375 792.414062 2594.441406 761.582031 2568.136719 C 725.875 2538.078125 708.042969 2499.160156 708.042969 2451.386719 L 708.042969 2241.097656 L 789.742188 2241.097656 L 789.742188 2451.386719 C 789.742188 2473.976562 797.828125 2492.042969 814.039062 2505.542969 C 821.5625 2512.3125 830.382812 2517.382812 840.496094 2520.785156 C 849.164062 2524.152344 857.054688 2525.816406 864.171875 2525.816406 C 870.980469 2525.816406 879.433594 2524.152344 889.550781 2520.785156 C 900.84375 2516.261719 909.683594 2511 916.085938 2505.003906 C 924.328125 2497.480469 930.167969 2489.953125 933.570312 2482.410156 C 937.691406 2474.171875 939.761719 2464.210938 939.761719 2452.546875 Z M 939.761719 2241.097656 " fill-opacity="1" fill-rule="nonzero"/><path fill="#033567" d="M 1204.726562 2608.136719 C 1179.910156 2608.136719 1158.113281 2604.578125 1139.351562 2597.457031 C 1124.285156 2591.425781 1108.867188 2581.480469 1093.085938 2567.59375 C 1075.019531 2551.039062 1063.546875 2530.535156 1058.65625 2506.085938 C 1056.796875 2498.195312 1055.871094 2490.304688 1055.871094 2482.410156 C 1055.503906 2479.78125 1055.503906 2477.148438 1055.871094 2474.519531 L 1055.871094 2470.574219 L 1133.085938 2471.734375 L 1133.085938 2471.117188 C 1133.085938 2485.042969 1136.101562 2496.53125 1142.136719 2505.542969 C 1153.433594 2522.46875 1174.28125 2530.921875 1204.726562 2530.921875 C 1253.566406 2530.921875 1277.996094 2519.453125 1277.996094 2496.492188 C 1277.996094 2474.328125 1252.8125 2460.417969 1202.484375 2454.789062 C 1173.546875 2451.386719 1148.730469 2445.390625 1128.054688 2436.765625 C 1108.867188 2428.871094 1093.257812 2418.351562 1081.246094 2405.195312 C 1064.324219 2386.378906 1055.871094 2364.558594 1055.871094 2339.742188 C 1055.871094 2324.328125 1058.675781 2309.859375 1064.304688 2296.339844 C 1068.421875 2286.183594 1074.070312 2276.976562 1081.246094 2268.71875 C 1107.550781 2239.007812 1149.273438 2224.152344 1206.429688 2224.152344 C 1240.625 2224.152344 1269.5625 2230.941406 1293.238281 2244.503906 C 1311.285156 2254.617188 1325.964844 2268.136719 1337.261719 2285.042969 C 1345.5 2297.847656 1351.339844 2312.507812 1354.746094 2329.066406 C 1355.828125 2334.695312 1356.5625 2340.324219 1356.988281 2345.933594 C 1357.335938 2347.847656 1357.53125 2349.722656 1357.53125 2351.582031 L 1357.53125 2354.984375 L 1280.316406 2354.984375 L 1280.316406 2355.527344 C 1280.664062 2344.289062 1277.839844 2334.714844 1271.804688 2326.824219 C 1259.777344 2309.917969 1237.996094 2301.445312 1206.429688 2301.445312 C 1187.242188 2301.445312 1171.457031 2303.882812 1159.078125 2308.71875 C 1143.644531 2314.753906 1135.945312 2323.417969 1135.945312 2334.714844 C 1135.945312 2357.984375 1160.9375 2372.449219 1210.917969 2378.117188 C 1267.28125 2384.519531 1307.878906 2402.003906 1332.695312 2430.574219 C 1349.253906 2450.128906 1357.53125 2472.101562 1357.53125 2496.492188 L 1357.53125 2501.597656 C 1357.53125 2503.882812 1357.335938 2506.125 1356.988281 2508.328125 C 1356.5625 2514.363281 1355.828125 2520.011719 1354.746094 2525.273438 C 1350.972656 2540.285156 1343.835938 2553.628906 1333.316406 2565.273438 C 1320.878906 2579.199219 1304.148438 2589.933594 1283.101562 2597.457031 C 1262.058594 2604.578125 1235.925781 2608.136719 1204.726562 2608.136719 Z M 1204.726562 2608.136719 " fill-opacity="1" fill-rule="nonzero"/><path fill="#033567" d="M 1567.199219 2241.097656 C 1608.917969 2241.097656 1642.015625 2254.832031 1666.464844 2282.257812 C 1687.507812 2306.300781 1698.03125 2334.308594 1698.03125 2366.28125 C 1698.03125 2397.5 1688.242188 2424.734375 1668.707031 2447.980469 C 1644.296875 2476.570312 1610.101562 2490.84375 1566.117188 2490.84375 L 1479.308594 2490.84375 L 1479.308594 2607.59375 L 1391.339844 2607.59375 L 1391.339844 2241.097656 Z M 1608.4375 2397.304688 C 1612.148438 2392.78125 1614.953125 2387.519531 1616.871094 2381.523438 C 1618.359375 2376.222656 1619.113281 2371.136719 1619.113281 2366.28125 C 1619.113281 2361.386719 1618.183594 2356.125 1616.328125 2350.496094 C 1614.046875 2344.460938 1611.027344 2339.203125 1607.277344 2334.714844 C 1598.609375 2324.925781 1585.246094 2320.015625 1567.199219 2320.015625 L 1479.308594 2320.015625 L 1479.308594 2411.929688 L 1566.117188 2411.929688 C 1577.757812 2411.929688 1587.546875 2410.226562 1595.4375 2406.820312 C 1600.699219 2403.84375 1605.03125 2400.671875 1608.4375 2397.304688 Z M 1608.4375 2397.304688 " fill-opacity="1" fill-rule="nonzero"/><path fill="#033567" d="M 1930.3125 2241.097656 L 2018.28125 2241.097656 L 2018.28125 2607.59375 L 1930.3125 2607.59375 L 1930.3125 2463.84375 L 1819.828125 2463.84375 L 1819.828125 2607.59375 L 1731.859375 2607.59375 L 1731.859375 2241.097656 L 1819.828125 2241.097656 L 1819.828125 2384.847656 L 1930.3125 2384.847656 Z M 1930.3125 2241.097656 " fill-opacity="1" fill-rule="nonzero"/><path fill="#033567" d="M 2140.054688 2463.84375 L 2140.054688 2528.679688 L 2308.023438 2528.679688 L 2308.023438 2607.59375 L 2052.085938 2607.59375 L 2052.085938 2241.097656 L 2308.023438 2241.097656 L 2308.023438 2320.015625 L 2140.054688 2320.015625 L 2140.054688 2384.847656 L 2282.644531 2384.847656 L 2282.644531 2463.84375 Z M 2140.054688 2463.84375 " fill-opacity="1" fill-rule="nonzero"/><path fill="#033567" d="M 2648.015625 2366.28125 C 2648.015625 2389.957031 2642 2411.929688 2629.988281 2432.199219 C 2615.328125 2456.300781 2594.652344 2473.03125 2567.9375 2482.410156 L 2646.855469 2607.59375 L 2548.210938 2607.59375 L 2471.539062 2490.84375 L 2429.835938 2490.84375 L 2429.835938 2607.59375 L 2341.867188 2607.59375 L 2341.867188 2241.097656 L 2517.183594 2241.097656 C 2558.90625 2241.097656 2592 2254.832031 2616.449219 2282.257812 C 2637.492188 2306.300781 2648.015625 2334.308594 2648.015625 2366.28125 Z M 2429.835938 2320.015625 L 2429.835938 2411.929688 L 2516.644531 2411.929688 C 2528.65625 2411.929688 2538.25 2410.226562 2545.425781 2406.820312 C 2551.402344 2403.476562 2555.714844 2400.304688 2558.34375 2397.304688 C 2562.097656 2392.78125 2564.941406 2387.519531 2566.855469 2381.523438 C 2568.34375 2376.222656 2569.097656 2371.136719 2569.097656 2366.28125 C 2569.097656 2361.019531 2568.34375 2355.757812 2566.855469 2350.496094 C 2564.574219 2344.460938 2561.382812 2339.203125 2557.261719 2334.714844 C 2548.945312 2324.925781 2535.597656 2320.015625 2517.183594 2320.015625 Z M 2429.835938 2320.015625 " fill-opacity="1" fill-rule="nonzero"/><path fill="#033567" d="M 2769.792969 2463.84375 L 2769.792969 2528.679688 L 2937.761719 2528.679688 L 2937.761719 2607.59375 L 2681.824219 2607.59375 L 2681.824219 2241.097656 L 2937.761719 2241.097656 L 2937.761719 2320.015625 L 2769.792969 2320.015625 L 2769.792969 2384.847656 L 2912.382812 2384.847656 L 2912.382812 2463.84375 Z M 2769.792969 2463.84375 " fill-opacity="1" fill-rule="nonzero"/></svg>