<svg xmlns="http://www.w3.org/2000/svg" xmlns:xlink="http://www.w3.org/1999/xlink" width="4000" zoomAndPan="magnify" viewBox="0 0 3000 2999.999989" height="4000" preserveAspectRatio="xMidYMid meet" version="1.0"><defs><clipPath id="93bd967337"><path d="M 1755 436.59375 L 2172.597656 436.59375 L 2172.597656 854 L 1755 854 Z M 1755 436.59375 " clip-rule="nonzero"/></clipPath></defs><path fill="#2f5249" d="M 1323.589844 930.5 L 2115.011719 930.5 L 2115.011719 1232.34375 L 1323.589844 1232.34375 Z M 1323.589844 930.5 " fill-opacity="1" fill-rule="nonzero"/><path fill="#2f5249" d="M 1813.164062 930.5 L 2115.011719 930.5 L 2115.011719 1721.921875 L 1813.164062 1721.921875 Z M 1813.164062 930.5 " fill-opacity="1" fill-rule="nonzero"/><path fill="#2f5249" d="M 1175.382812 1655.675781 L 1891.878906 939.175781 L 2105.308594 1152.605469 L 1388.808594 1869.105469 Z M 1175.382812 1655.675781 " fill-opacity="1" fill-rule="nonzero"/><g clip-path="url(#93bd967337)"><path fill="#2f5249" d="M 2172.785156 645.28125 C 2172.785156 652.113281 2172.449219 658.941406 2171.777344 665.734375 C 2171.105469 672.546875 2170.097656 679.28125 2168.773438 686 C 2167.429688 692.699219 2165.769531 699.324219 2163.792969 705.855469 C 2161.8125 712.40625 2159.519531 718.824219 2156.886719 725.132812 C 2154.273438 731.460938 2151.363281 737.617188 2148.136719 743.644531 C 2144.925781 749.691406 2141.398438 755.53125 2137.609375 761.222656 C 2133.820312 766.898438 2129.753906 772.382812 2125.40625 777.664062 C 2121.074219 782.945312 2116.484375 788.003906 2111.652344 792.835938 C 2106.820312 797.667969 2101.761719 802.261719 2096.480469 806.589844 C 2091.199219 810.9375 2085.714844 815.003906 2080.039062 818.792969 C 2074.347656 822.601562 2068.488281 826.109375 2062.460938 829.320312 C 2056.433594 832.546875 2050.273438 835.457031 2043.949219 838.089844 C 2037.640625 840.703125 2031.203125 842.996094 2024.671875 844.976562 C 2018.140625 846.972656 2011.515625 848.613281 2004.796875 849.957031 C 1998.097656 851.28125 1991.34375 852.289062 1984.550781 852.960938 C 1977.738281 853.632812 1970.929688 853.96875 1964.097656 853.96875 C 1957.269531 853.96875 1950.4375 853.632812 1943.644531 852.960938 C 1936.832031 852.289062 1930.078125 851.28125 1923.378906 849.957031 C 1916.679688 848.613281 1910.054688 846.972656 1903.523438 844.976562 C 1896.972656 842.996094 1890.554688 840.703125 1884.226562 838.089844 C 1877.921875 835.457031 1871.742188 832.546875 1865.714844 829.320312 C 1859.6875 826.109375 1853.828125 822.601562 1848.15625 818.792969 C 1842.464844 815.003906 1836.996094 810.9375 1831.695312 806.589844 C 1826.414062 802.261719 1821.359375 797.667969 1816.523438 792.835938 C 1811.691406 788.003906 1807.121094 782.945312 1802.773438 777.664062 C 1798.441406 772.382812 1794.375 766.898438 1790.585938 761.222656 C 1786.777344 755.53125 1783.269531 749.691406 1780.042969 743.644531 C 1776.832031 737.617188 1773.902344 731.460938 1771.289062 725.132812 C 1768.675781 718.824219 1766.382812 712.40625 1764.386719 705.855469 C 1762.40625 699.324219 1760.746094 692.699219 1759.421875 686 C 1758.078125 679.28125 1757.089844 672.546875 1756.417969 665.734375 C 1755.746094 658.941406 1755.410156 652.113281 1755.410156 645.28125 C 1755.410156 638.453125 1755.746094 631.621094 1756.417969 624.828125 C 1757.089844 618.019531 1758.078125 611.261719 1759.421875 604.5625 C 1760.746094 597.863281 1762.40625 591.238281 1764.386719 584.707031 C 1766.382812 578.15625 1768.675781 571.738281 1771.289062 565.410156 C 1773.902344 559.105469 1776.832031 552.925781 1780.042969 546.898438 C 1783.269531 540.871094 1786.777344 535.03125 1790.585938 529.339844 C 1794.375 523.667969 1798.441406 518.179688 1802.773438 512.898438 C 1807.121094 507.597656 1811.691406 502.542969 1816.523438 497.707031 C 1821.359375 492.875 1826.414062 488.304688 1831.695312 483.957031 C 1836.996094 479.625 1842.464844 475.558594 1848.15625 471.769531 C 1853.828125 467.960938 1859.6875 464.453125 1865.714844 461.246094 C 1871.742188 458.015625 1877.921875 455.085938 1884.226562 452.472656 C 1890.554688 449.863281 1896.972656 447.566406 1903.523438 445.589844 C 1910.054688 443.589844 1916.679688 441.929688 1923.378906 440.605469 C 1930.078125 439.261719 1936.832031 438.273438 1943.644531 437.601562 C 1950.4375 436.929688 1957.269531 436.59375 1964.097656 436.59375 C 1970.929688 436.59375 1977.738281 436.929688 1984.550781 437.601562 C 1991.34375 438.273438 1998.097656 439.261719 2004.796875 440.605469 C 2011.515625 441.929688 2018.140625 443.589844 2024.671875 445.589844 C 2031.203125 447.566406 2037.640625 449.863281 2043.949219 452.472656 C 2050.273438 455.085938 2056.433594 458.015625 2062.460938 461.246094 C 2068.488281 464.453125 2074.347656 467.960938 2080.039062 471.769531 C 2085.714844 475.558594 2091.199219 479.625 2096.480469 483.957031 C 2101.761719 488.304688 2106.820312 492.875 2111.652344 497.707031 C 2116.484375 502.542969 2121.074219 507.597656 2125.40625 512.898438 C 2129.753906 518.179688 2133.820312 523.667969 2137.609375 529.339844 C 2141.398438 535.03125 2144.925781 540.871094 2148.136719 546.898438 C 2151.363281 552.925781 2154.273438 559.105469 2156.886719 565.410156 C 2159.519531 571.738281 2161.8125 578.15625 2163.792969 584.707031 C 2165.769531 591.238281 2167.429688 597.863281 2168.773438 604.5625 C 2170.097656 611.261719 2171.105469 618.019531 2171.777344 624.828125 C 2172.449219 631.621094 2172.785156 638.453125 2172.785156 645.28125 Z M 2172.785156 645.28125 " fill-opacity="1" fill-rule="nonzero"/></g><path fill="#2f5249" d="M 1566.183594 465.480469 C 1431.972656 441.070312 1293.449219 461.226562 1171.742188 522.882812 C 1050.050781 584.519531 951.855469 684.285156 892.121094 806.925781 C 832.386719 929.585938 814.417969 1068.40625 840.914062 1202.226562 C 867.414062 1336.046875 930.65625 1431.3125 1032.621094 1521.929688 L 1228.265625 1335.113281 C 1172.769531 1285.792969 1134.921875 1219.675781 1120.5 1146.839844 C 1106.074219 1074.023438 1115.851562 998.464844 1148.359375 931.714844 C 1180.867188 864.960938 1234.3125 810.675781 1300.542969 777.125 C 1366.769531 743.570312 1442.160156 732.597656 1515.203125 745.882812 Z M 1566.183594 465.480469 " fill-opacity="1" fill-rule="nonzero"/><path fill="#2f5249" d="M 558.789062 2248.898438 L 558.789062 2547.035156 L 455.9375 2547.035156 L 455.9375 2505.914062 C 410.074219 2538.625 358.675781 2554.953125 301.773438 2554.953125 C 228.488281 2554.953125 166.050781 2529.132812 114.410156 2477.492188 C 62.765625 2425.796875 36.945312 2363.304688 36.945312 2290.019531 C 36.945312 2216.757812 62.765625 2154.296875 114.410156 2102.652344 C 166.050781 2051.011719 228.488281 2025.191406 301.773438 2025.191406 C 367.140625 2025.191406 424.613281 2046.292969 474.164062 2088.441406 L 395.074219 2166.664062 C 367.140625 2146.132812 336.054688 2135.851562 301.773438 2135.851562 C 258.59375 2135.851562 222.492188 2150.90625 193.5 2180.984375 C 162.902344 2211.523438 147.605469 2247.871094 147.605469 2290.019531 C 147.605469 2332.195312 162.902344 2368.566406 193.5 2399.160156 C 223.496094 2429.265625 259.597656 2444.292969 301.773438 2444.292969 C 343.433594 2444.292969 379.804688 2429.265625 410.914062 2399.160156 C 411.917969 2398.15625 412.976562 2397.097656 414.0625 2396.015625 L 417.96875 2392.109375 C 421.65625 2387.851562 425.074219 2383.863281 428.273438 2380.175781 C 437.222656 2369.109375 443.300781 2359.640625 446.5 2351.75 L 327.917969 2351.75 L 327.917969 2248.898438 Z M 455.179688 2351.75 L 455.9375 2352.507812 L 455.9375 2351.75 Z M 455.179688 2351.75 " fill-opacity="1" fill-rule="nonzero"/><path fill="#2f5249" d="M 729.503906 2345.457031 L 729.503906 2436.371094 L 965.039062 2436.371094 L 965.039062 2547.035156 L 606.148438 2547.035156 L 606.148438 2033.109375 L 965.039062 2033.109375 L 965.039062 2143.773438 L 729.503906 2143.773438 L 729.503906 2234.6875 L 929.453125 2234.6875 L 929.453125 2345.457031 Z M 729.503906 2345.457031 " fill-opacity="1" fill-rule="nonzero"/><path fill="#2f5249" d="M 1348.496094 2033.109375 L 1471.851562 2033.109375 L 1471.851562 2547.035156 L 1131.078125 2296.417969 L 1131.078125 2547.035156 L 1007.726562 2547.035156 L 1007.726562 2033.109375 L 1348.496094 2295.550781 Z M 1348.496094 2033.109375 " fill-opacity="1" fill-rule="nonzero"/><path fill="#2f5249" d="M 1637.859375 2345.457031 L 1637.859375 2436.371094 L 1873.394531 2436.371094 L 1873.394531 2547.035156 L 1514.503906 2547.035156 L 1514.503906 2033.109375 L 1873.394531 2033.109375 L 1873.394531 2143.773438 L 1637.859375 2143.773438 L 1637.859375 2234.6875 L 1837.808594 2234.6875 L 1837.808594 2345.457031 Z M 1637.859375 2345.457031 " fill-opacity="1" fill-rule="nonzero"/><path fill="#2f5249" d="M 2130.351562 2547.792969 C 2095.550781 2547.792969 2064.984375 2542.804688 2038.675781 2532.820312 C 2017.546875 2524.359375 1995.929688 2510.417969 1973.796875 2490.945312 C 1948.464844 2467.726562 1932.382812 2438.976562 1925.519531 2404.695312 C 1922.914062 2393.628906 1921.613281 2382.5625 1921.613281 2371.496094 C 1921.097656 2367.804688 1921.097656 2364.117188 1921.613281 2360.429688 L 1921.613281 2354.894531 L 2029.886719 2356.523438 L 2029.886719 2355.65625 C 2029.886719 2375.183594 2034.117188 2391.292969 2042.582031 2403.933594 C 2058.421875 2427.667969 2087.660156 2439.519531 2130.351562 2439.519531 C 2198.835938 2439.519531 2233.089844 2423.433594 2233.089844 2391.242188 C 2233.089844 2360.15625 2197.777344 2340.65625 2127.203125 2332.765625 C 2086.628906 2327.992188 2051.828125 2319.582031 2022.835938 2307.484375 C 1995.929688 2296.417969 1974.042969 2281.664062 1957.199219 2263.222656 C 1933.464844 2236.832031 1921.613281 2206.234375 1921.613281 2171.4375 C 1921.613281 2149.820312 1925.546875 2129.53125 1933.4375 2110.574219 C 1939.214844 2096.335938 1947.136719 2083.425781 1957.199219 2071.84375 C 1994.085938 2030.183594 2052.589844 2009.351562 2132.738281 2009.351562 C 2180.691406 2009.351562 2221.265625 2018.871094 2254.464844 2037.886719 C 2279.769531 2052.070312 2300.355469 2071.027344 2316.195312 2094.734375 C 2327.75 2112.691406 2335.941406 2133.25 2340.714844 2156.464844 C 2342.234375 2164.359375 2343.265625 2172.25 2343.859375 2180.117188 C 2344.347656 2182.800781 2344.621094 2185.433594 2344.621094 2188.035156 L 2344.621094 2192.808594 L 2236.347656 2192.808594 L 2236.347656 2193.570312 C 2236.835938 2177.8125 2232.875 2164.386719 2224.414062 2153.320312 C 2207.542969 2129.613281 2177 2117.734375 2132.738281 2117.734375 C 2105.832031 2117.734375 2083.699219 2121.152344 2066.339844 2127.933594 C 2044.695312 2136.394531 2033.902344 2148.546875 2033.902344 2164.386719 C 2033.902344 2197.015625 2068.945312 2217.300781 2139.03125 2225.25 C 2218.066406 2234.226562 2274.996094 2258.746094 2309.792969 2298.804688 C 2333.011719 2326.226562 2344.621094 2357.039062 2344.621094 2391.242188 L 2344.621094 2398.402344 C 2344.621094 2401.601562 2344.347656 2404.746094 2343.859375 2407.839844 C 2343.265625 2416.300781 2342.234375 2424.222656 2340.714844 2431.597656 C 2335.425781 2452.648438 2325.417969 2471.363281 2310.664062 2487.6875 C 2293.222656 2507.21875 2269.761719 2522.269531 2240.253906 2532.820312 C 2210.742188 2542.804688 2174.097656 2547.792969 2130.351562 2547.792969 Z M 2130.351562 2547.792969 " fill-opacity="1" fill-rule="nonzero"/><path fill="#2f5249" d="M 2380.09375 2033.109375 L 2503.449219 2033.109375 L 2503.449219 2547.035156 L 2380.09375 2547.035156 Z M 2380.09375 2033.109375 " fill-opacity="1" fill-rule="nonzero"/><path fill="#2f5249" d="M 2748.570312 2547.792969 C 2713.769531 2547.792969 2683.203125 2542.804688 2656.894531 2532.820312 C 2635.765625 2524.359375 2614.148438 2510.417969 2592.015625 2490.945312 C 2566.683594 2467.726562 2550.601562 2438.976562 2543.738281 2404.695312 C 2541.132812 2393.628906 2539.832031 2382.5625 2539.832031 2371.496094 C 2539.316406 2367.804688 2539.316406 2364.117188 2539.832031 2360.429688 L 2539.832031 2354.894531 L 2648.105469 2356.523438 L 2648.105469 2355.65625 C 2648.105469 2375.183594 2652.335938 2391.292969 2660.800781 2403.933594 C 2676.640625 2427.667969 2705.878906 2439.519531 2748.570312 2439.519531 C 2817.054688 2439.519531 2851.3125 2423.433594 2851.3125 2391.242188 C 2851.3125 2360.15625 2815.996094 2340.65625 2745.421875 2332.765625 C 2704.847656 2327.992188 2670.050781 2319.582031 2641.054688 2307.484375 C 2614.148438 2296.417969 2592.261719 2281.664062 2575.417969 2263.222656 C 2551.683594 2236.832031 2539.832031 2206.234375 2539.832031 2171.4375 C 2539.832031 2149.820312 2543.765625 2129.53125 2551.65625 2110.574219 C 2557.433594 2096.335938 2565.355469 2083.425781 2575.417969 2071.84375 C 2612.304688 2030.183594 2670.808594 2009.351562 2750.957031 2009.351562 C 2798.910156 2009.351562 2839.484375 2018.871094 2872.683594 2037.886719 C 2897.988281 2052.070312 2918.574219 2071.027344 2934.414062 2094.734375 C 2945.96875 2112.691406 2954.160156 2133.25 2958.933594 2156.464844 C 2960.453125 2164.359375 2961.484375 2172.25 2962.078125 2180.117188 C 2962.566406 2182.800781 2962.839844 2185.433594 2962.839844 2188.035156 L 2962.839844 2192.808594 L 2854.566406 2192.808594 L 2854.566406 2193.570312 C 2855.054688 2177.8125 2851.09375 2164.386719 2842.632812 2153.320312 C 2825.761719 2129.613281 2795.21875 2117.734375 2750.957031 2117.734375 C 2724.050781 2117.734375 2701.917969 2121.152344 2684.558594 2127.933594 C 2662.914062 2136.394531 2652.121094 2148.546875 2652.121094 2164.386719 C 2652.121094 2197.015625 2687.164062 2217.300781 2757.25 2225.25 C 2836.285156 2234.226562 2893.214844 2258.746094 2928.015625 2298.804688 C 2951.230469 2326.226562 2962.839844 2357.039062 2962.839844 2391.242188 L 2962.839844 2398.402344 C 2962.839844 2401.601562 2962.566406 2404.746094 2962.078125 2407.839844 C 2961.484375 2416.300781 2960.453125 2424.222656 2958.933594 2431.597656 C 2953.644531 2452.648438 2943.636719 2471.363281 2928.882812 2487.6875 C 2911.441406 2507.21875 2887.980469 2522.269531 2858.472656 2532.820312 C 2828.960938 2542.804688 2792.320312 2547.792969 2748.570312 2547.792969 Z M 2748.570312 2547.792969 " fill-opacity="1" fill-rule="nonzero"/></svg>